<svg width="107" height="32" viewBox="0 0 107 32" fill="none" xmlns="http://www.w3.org/2000/svg">
<path d="M14.6041 10.1035C14.608 9.19279 14.3787 8.29707 13.9393 7.50602C13.4999 6.71497 12.8658 6.05637 12.1004 5.59621C11.3351 5.13605 10.4654 4.89048 9.57852 4.8841C8.69164 4.87772 7.81869 5.11077 7.04714 5.55988C6.27559 6.009 5.63252 6.65841 5.18238 7.44307C4.73223 8.22772 4.49081 9.12006 4.48229 10.0307C4.47377 10.9413 4.69846 11.8382 5.13385 12.6316C5.56924 13.425 6.20004 14.087 6.96305 14.5512C6.29163 14.9555 5.71983 15.513 5.29192 16.1806C5.15221 16.414 5.10728 16.6944 5.16679 16.9615C5.22629 17.2286 5.38547 17.4611 5.61012 17.609C5.83478 17.7568 6.10696 17.8083 6.36817 17.7523C6.62938 17.6963 6.85877 17.5373 7.00703 17.3095C7.29292 16.8592 7.68792 16.4929 8.15325 16.2467C8.61859 16.0004 9.13828 15.8826 9.66133 15.9048C10.1844 15.927 10.6929 16.0884 11.1368 16.3732C11.5808 16.658 11.945 17.0565 12.1938 17.5295C12.4425 18.0024 12.5673 18.5337 12.5557 19.0711C12.5442 19.6085 12.3968 20.1336 12.128 20.5948C11.8592 21.0561 11.4783 21.4377 11.0225 21.7022C10.5668 21.9666 10.0519 22.1049 9.52838 22.1034C9.26826 22.1195 9.02392 22.2368 8.84526 22.4316C8.66659 22.6264 8.5671 22.8839 8.5671 23.1514C8.5671 23.419 8.66659 23.6765 8.84526 23.8712C9.02392 24.066 9.26826 24.1834 9.52838 24.1994C10.6351 24.2003 11.7116 23.8284 12.5928 23.1407C13.4739 22.453 14.111 21.4876 14.4064 20.3924C14.7017 19.2972 14.639 18.1327 14.2279 17.0776C13.8168 16.0225 13.0799 15.135 12.1304 14.5512C12.8819 14.0926 13.5049 13.4418 13.9384 12.6623C14.372 11.8828 14.6013 11.0011 14.6041 10.1035ZM9.52838 13.2041C8.93113 13.2041 8.34729 13.0223 7.85069 12.6816C7.35409 12.3408 6.96704 11.8566 6.73848 11.29C6.50993 10.7234 6.45012 10.1 6.56664 9.49854C6.68316 8.89707 6.97077 8.34459 7.39309 7.91095C7.81541 7.47732 8.35348 7.18201 8.93926 7.06237C9.52503 6.94273 10.1322 7.00413 10.684 7.23882C11.2358 7.4735 11.7074 7.87092 12.0392 8.38082C12.371 8.89072 12.5481 9.4902 12.5481 10.1035C12.5472 10.9255 12.2287 11.7136 11.6626 12.2948C11.0965 12.8761 10.329 13.2031 9.52838 13.2041Z" fill="#86BC25"/>
<path d="M86.7229 4.89185C85.7219 4.89185 84.7434 5.19662 83.9111 5.76763C83.0789 6.33864 82.4302 7.15024 82.0471 8.0998C81.6641 9.04936 81.5638 10.0942 81.7591 11.1023C81.9544 12.1103 82.4364 13.0363 83.1442 13.763C83.852 14.4898 84.7538 14.9847 85.7355 15.1852C86.7173 15.3857 87.7349 15.2828 88.6597 14.8895C89.5845 14.4962 90.3749 13.8301 90.931 12.9755C91.4871 12.121 91.7839 11.1163 91.7839 10.0885C91.782 8.71084 91.2482 7.39022 90.2994 6.4161C89.3507 5.44197 88.0646 4.89384 86.7229 4.89185ZM86.7229 13.1891C86.1256 13.1891 85.5418 13.0073 85.0452 12.6666C84.5486 12.3259 84.1616 11.8416 83.933 11.275C83.7044 10.7085 83.6446 10.085 83.7612 9.48355C83.8777 8.88208 84.1653 8.3296 84.5876 7.89596C85.0099 7.46233 85.548 7.16702 86.1338 7.04738C86.7195 6.92774 87.3267 6.98914 87.8785 7.22382C88.4303 7.45851 88.9019 7.85592 89.2337 8.36583C89.5656 8.87573 89.7427 9.47521 89.7427 10.0885C89.7441 10.4968 89.6671 10.9014 89.516 11.2791C89.365 11.6568 89.1428 12.0002 88.8623 12.2896C88.5818 12.579 88.2484 12.8088 87.8813 12.9657C87.5142 13.1226 87.1206 13.2037 86.7229 13.2042V13.1891Z" fill="#86BC25"/>
<path d="M26.7527 4.89179C25.913 4.89188 25.0865 5.1065 24.3478 5.51631C23.609 5.92612 22.9811 6.51824 22.5207 7.23931C22.0603 7.96038 21.7819 8.78774 21.7106 9.64682C21.6392 10.5059 21.7772 11.3697 22.112 12.1604C22.4468 12.9511 22.9679 13.6439 23.6285 14.1762C24.289 14.7086 25.0682 15.0638 25.8958 15.2099C26.7233 15.356 27.5733 15.2883 28.3691 15.0131C29.1648 14.7378 29.8814 14.2636 30.4542 13.6331C30.552 13.5335 30.6292 13.4147 30.6812 13.2838C30.7332 13.1529 30.759 13.0125 30.7568 12.8711C30.7547 12.7297 30.7248 12.5902 30.6688 12.461C30.6129 12.3318 30.5321 12.2155 30.4313 12.1191C30.3306 12.0227 30.2119 11.9482 30.0823 11.9001C29.9528 11.852 29.8152 11.8312 29.6777 11.8391C29.5402 11.847 29.4056 11.8832 29.2821 11.9458C29.1586 12.0084 29.0487 12.0959 28.9589 12.2032C28.679 12.515 28.339 12.7637 27.9604 12.9334C27.5819 13.1032 27.1731 13.1902 26.7601 13.1891C26.2065 13.19 25.6632 13.0347 25.1898 12.7401C24.7163 12.4454 24.3309 12.0228 24.0755 11.5185C23.8202 11.0141 23.7048 10.4474 23.742 9.88019C23.7792 9.31302 23.9675 8.76726 24.2863 8.30257C24.6052 7.83787 25.0423 7.47212 25.55 7.24529C26.0576 7.01847 26.6162 6.93929 27.1647 7.01642C27.7132 7.09355 28.2305 7.32402 28.66 7.68264C29.0896 8.04126 29.4148 8.51422 29.6003 9.04983H26.1847C25.9135 9.04983 25.6535 9.16044 25.4617 9.35733C25.27 9.55421 25.1622 9.82125 25.1622 10.0997C25.1622 10.3781 25.27 10.6452 25.4617 10.8421C25.6535 11.0389 25.9135 11.1495 26.1847 11.1495H30.8023C30.9366 11.1495 31.0695 11.1224 31.1936 11.0696C31.3176 11.0169 31.4304 10.9395 31.5253 10.8421C31.6203 10.7446 31.6956 10.6288 31.7469 10.5015C31.7983 10.3741 31.8248 10.2376 31.8248 10.0997C31.8253 9.41564 31.6944 8.7382 31.4397 8.10613C31.185 7.47405 30.8114 6.89974 30.3403 6.41604C29.8692 5.93234 29.3099 5.54875 28.6943 5.28721C28.0787 5.02566 27.419 4.89129 26.7527 4.89179Z" fill="#86BC25"/>
<path d="M37.6408 4.89185C36.9552 4.89306 36.2771 5.03705 35.6473 5.31511C35.0175 5.59317 34.4492 5.99952 33.9768 6.50958C33.5044 7.01964 33.1376 7.6228 32.8988 8.28258C32.6599 8.94236 32.5539 9.64503 32.5871 10.3481C32.6543 11.6332 33.1803 12.8478 34.0646 13.7599C34.9488 14.672 36.1293 15.2177 37.3806 15.2926H37.6224C38.3174 15.2932 39.005 15.1468 39.6424 14.8626C40.2799 14.5784 40.8535 14.1625 41.3275 13.6407C41.419 13.5401 41.4902 13.422 41.5372 13.2932C41.5842 13.1644 41.606 13.0273 41.6014 12.8898C41.5969 12.7523 41.5659 12.6171 41.5104 12.4918C41.455 12.3666 41.376 12.2538 41.278 12.16C41.1801 12.0661 41.0651 11.9929 40.9396 11.9446C40.8142 11.8964 40.6807 11.874 40.5468 11.8787C40.4128 11.8834 40.2812 11.9152 40.1592 11.9721C40.0372 12.0291 39.9274 12.1102 39.836 12.2108C39.4314 12.6577 38.9072 12.972 38.3293 13.1142C37.7514 13.2563 37.1454 13.22 36.5875 13.0097C36.0296 12.7995 35.5446 12.4247 35.1935 11.9324C34.8423 11.4402 34.6406 10.8523 34.6137 10.2427C34.5681 9.4944 34.7885 8.7545 35.234 8.16036C35.6795 7.56623 36.3197 7.15822 37.036 7.01206C37.7522 6.86589 38.4957 6.9915 39.1286 7.36557C39.7615 7.73964 40.2407 8.33677 40.4773 9.04613H37.0581C36.7869 9.04613 36.5268 9.15673 36.3351 9.35362C36.1433 9.55051 36.0356 9.81754 36.0356 10.096C36.0356 10.3744 36.1433 10.6415 36.3351 10.8383C36.5268 11.0352 36.7869 11.1458 37.0581 11.1458H41.6757C41.9468 11.1458 42.2069 11.0352 42.3987 10.8383C42.5904 10.6415 42.6981 10.3744 42.6981 10.096C42.6981 8.71771 42.1657 7.39573 41.2175 6.42009C40.2694 5.44445 38.9831 4.89484 37.6408 4.89185Z" fill="#86BC25"/>
<path d="M68.0619 4.89185C67.3774 4.89264 66.7001 5.03581 66.0709 5.31272C65.4417 5.58963 64.8737 5.99454 64.4011 6.50302C63.9284 7.0115 63.561 7.61302 63.321 8.27128C63.081 8.92954 62.9733 9.6309 63.0045 10.333C63.0683 11.6208 63.5927 12.8391 64.4773 13.7543C65.3619 14.6696 66.5444 15.2173 67.798 15.2926H68.0436C68.738 15.2931 69.425 15.1467 70.0619 14.8625C70.6987 14.5783 71.2716 14.1623 71.745 13.6407C71.8364 13.5401 71.9077 13.422 71.9547 13.2932C72.0017 13.1644 72.0235 13.0273 72.0189 12.8898C72.0143 12.7523 71.9834 12.6171 71.9279 12.4918C71.8724 12.3666 71.7934 12.2538 71.6955 12.16C71.5976 12.0661 71.4826 11.9929 71.3571 11.9446C71.2316 11.8964 71.0981 11.874 70.9642 11.8787C70.8303 11.8834 70.6986 11.9152 70.5767 11.9721C70.4547 12.0291 70.3449 12.1102 70.2534 12.2108C69.8042 12.705 69.2099 13.035 68.5611 13.1504C67.9123 13.2657 67.2446 13.1602 66.6596 12.8499C66.0747 12.5396 65.6045 12.0414 65.3208 11.4313C65.037 10.8212 64.9553 10.1326 65.0879 9.47044C65.2206 8.80822 65.5604 8.20868 66.0556 7.76312C66.5509 7.31757 67.1743 7.05042 67.8311 7.00237C68.4879 6.95431 69.142 7.12799 69.6937 7.49695C70.2455 7.86591 70.6647 8.40992 70.8874 9.04613H67.1237C66.8525 9.04613 66.5925 9.15674 66.4007 9.35362C66.209 9.55051 66.1012 9.81754 66.1012 10.096C66.1012 10.3744 66.209 10.6415 66.4007 10.8383C66.5925 11.0352 66.8525 11.1458 67.1237 11.1458H72.1005C72.3716 11.1458 72.6317 11.0352 72.8235 10.8383C73.0152 10.6415 73.1229 10.3744 73.1229 10.096C73.1229 8.71706 72.5899 7.39451 71.641 6.41876C70.6921 5.44301 69.4048 4.89384 68.0619 4.89185Z" fill="#86BC25"/>
<path d="M75.2778 2.13736C75.015 2.12925 74.7598 2.22848 74.5681 2.41329C74.3765 2.5981 74.264 2.85342 74.2554 3.12325V13.968C74.2554 14.2465 74.3631 14.5135 74.5549 14.7104C74.7466 14.9073 75.0067 15.0179 75.2778 15.0179C75.549 15.0179 75.8091 14.9073 76.0008 14.7104C76.1926 14.5135 76.3003 14.2465 76.3003 13.968V3.12325C76.2917 2.85342 76.1792 2.5981 75.9876 2.41329C75.7959 2.22848 75.5407 2.12925 75.2778 2.13736Z" fill="#86BC25"/>
<path d="M79.2614 2.13736C78.9986 2.12925 78.7434 2.22848 78.5517 2.41329C78.36 2.5981 78.2476 2.85342 78.239 3.12325V13.968C78.239 14.2465 78.3467 14.5135 78.5384 14.7104C78.7302 14.9073 78.9902 15.0179 79.2614 15.0179C79.5326 15.0179 79.7927 14.9073 79.9844 14.7104C80.1762 14.5135 80.2839 14.2465 80.2839 13.968V3.12325C80.2753 2.85342 80.1628 2.5981 79.9711 2.41329C79.7795 2.22848 79.5242 2.12925 79.2614 2.13736Z" fill="#86BC25"/>
<path d="M20.6472 5.38102C19.8321 5.38225 19.034 5.62105 18.3458 6.06964C18.3031 5.81273 18.1685 5.58144 17.9685 5.42104C17.7684 5.26065 17.5173 5.18271 17.2642 5.20248C17.0111 5.22225 16.7743 5.33831 16.6002 5.52794C16.4261 5.71757 16.3272 5.9671 16.3228 6.22768V13.9229C16.3145 14.0658 16.3347 14.2089 16.3822 14.3435C16.4297 14.4781 16.5035 14.6013 16.5991 14.7055C16.6947 14.8097 16.8101 14.8928 16.9381 14.9495C17.0661 15.0063 17.204 15.0356 17.3435 15.0356C17.4829 15.0356 17.6208 15.0063 17.7488 14.9495C17.8768 14.8928 17.9922 14.8097 18.0878 14.7055C18.1834 14.6013 18.2572 14.4781 18.3047 14.3435C18.3522 14.2089 18.3724 14.0658 18.3641 13.9229V9.82505C18.3641 9.20295 18.6045 8.60628 19.0326 8.16604C19.4606 7.7258 20.0414 7.47797 20.6472 7.47697C20.7864 7.48554 20.9258 7.46479 21.0569 7.416C21.188 7.36721 21.3079 7.2914 21.4094 7.19325C21.5109 7.09509 21.5918 6.97666 21.6471 6.84523C21.7024 6.71381 21.7309 6.57216 21.7309 6.429C21.7309 6.28584 21.7024 6.14419 21.6471 6.01276C21.5918 5.88133 21.5109 5.7629 21.4094 5.66474C21.3079 5.56659 21.188 5.49079 21.0569 5.44199C20.9258 5.3932 20.7864 5.37245 20.6472 5.38102Z" fill="#86BC25"/>
<path d="M48.2686 5.38099C47.4533 5.3816 46.6551 5.62044 45.9671 6.0696C45.9294 5.80789 45.7965 5.57058 45.5951 5.40545C45.3938 5.24033 45.1391 5.15967 44.8821 5.1797C44.6252 5.19974 44.3852 5.31899 44.2105 5.51343C44.0358 5.70788 43.9393 5.96308 43.9405 6.22765V14.0282C43.9321 14.1711 43.9524 14.3143 43.9999 14.4488C44.0474 14.5834 44.1212 14.7066 44.2168 14.8108C44.3124 14.9151 44.4278 14.9981 44.5557 15.0549C44.6837 15.1116 44.8217 15.1409 44.9611 15.1409C45.1006 15.1409 45.2385 15.1116 45.3665 15.0549C45.4945 14.9981 45.6098 14.9151 45.7054 14.8108C45.801 14.7066 45.8749 14.5834 45.9224 14.4488C45.9699 14.3143 45.9901 14.1711 45.9818 14.0282V9.82501C45.9827 9.20257 46.224 8.60591 46.6526 8.16577C47.0813 7.72564 47.6624 7.47794 48.2686 7.47694C48.5698 7.46844 48.8695 7.52359 49.1491 7.63898C49.4286 7.75437 49.6821 7.92752 49.8938 8.1477C50.1055 8.36788 50.2709 8.63039 50.3796 8.91893C50.4884 9.20746 50.5382 9.51587 50.5261 9.82501V14.0282C50.5177 14.1711 50.5379 14.3143 50.5854 14.4488C50.633 14.5834 50.7068 14.7066 50.8024 14.8108C50.898 14.9151 51.0133 14.9981 51.1413 15.0549C51.2693 15.1116 51.4073 15.1409 51.5467 15.1409C51.6861 15.1409 51.8241 15.1116 51.9521 15.0549C52.0801 14.9981 52.1954 14.9151 52.291 14.8108C52.3866 14.7066 52.4604 14.5834 52.5079 14.4488C52.5555 14.3143 52.5757 14.1711 52.5673 14.0282V9.82501C52.5818 9.23992 52.4807 8.65788 52.2701 8.11398C52.0596 7.57009 51.744 7.0756 51.3423 6.66034C50.9406 6.24508 50.4612 5.91764 49.9329 5.69776C49.4046 5.47789 48.8385 5.37013 48.2686 5.38099Z" fill="#86BC25"/>
<path d="M105.857 5.26813C105.733 5.21425 105.601 5.18593 105.467 5.18477C105.332 5.18362 105.199 5.20966 105.075 5.2614C104.951 5.31314 104.838 5.38956 104.742 5.48628C104.647 5.58301 104.571 5.69813 104.519 5.82504L102.302 11.1947L100.326 6.05834C100.252 5.86212 100.121 5.69356 99.9521 5.57472C99.7828 5.45588 99.5824 5.3923 99.3773 5.3923C99.1727 5.39252 98.9729 5.45575 98.8037 5.57382C98.6345 5.69188 98.5037 5.85935 98.4281 6.05458L96.4455 11.1759L94.3016 5.83633C94.2551 5.70232 94.1825 5.57942 94.0883 5.47509C93.9941 5.37076 93.8803 5.28718 93.7537 5.22941C93.627 5.17165 93.4903 5.14091 93.3518 5.13907C93.2132 5.13722 93.0758 5.16431 92.9477 5.21868C92.8197 5.27305 92.7038 5.35358 92.607 5.45537C92.5102 5.55715 92.4345 5.67808 92.3846 5.8108C92.3347 5.94352 92.3116 6.08527 92.3167 6.22744C92.3218 6.36961 92.355 6.50923 92.4143 6.63783L95.522 14.3669C95.5983 14.5591 95.7287 14.7237 95.8964 14.8396C96.0641 14.9555 96.2617 15.0176 96.4638 15.0179C96.6672 15.0162 96.8654 14.9522 97.0331 14.8343C97.2009 14.7163 97.3306 14.5497 97.4057 14.3556L99.3663 9.2907L101.309 14.3519C101.383 14.5457 101.512 14.7125 101.679 14.831C101.846 14.9496 102.044 15.0146 102.247 15.0179C102.45 15.0213 102.649 14.9621 102.819 14.8481C102.989 14.7341 103.121 14.5704 103.2 14.3782L106.392 6.64536C106.445 6.5189 106.473 6.38288 106.475 6.24512C106.477 6.10736 106.453 5.97056 106.403 5.84259C106.353 5.71462 106.279 5.598 106.186 5.49941C106.092 5.40083 105.98 5.32223 105.857 5.26813Z" fill="#86BC25"/>
<path d="M61.7952 5.2681C61.5457 5.16451 61.2666 5.16606 61.0182 5.27243C60.7699 5.3788 60.5724 5.5814 60.4685 5.8363L58.1084 11.7102L55.741 5.8363C55.7038 5.69118 55.6367 5.55594 55.5442 5.4397C55.4518 5.32346 55.3361 5.22892 55.2051 5.16246C55.074 5.096 54.9306 5.05916 54.7845 5.05442C54.6385 5.04968 54.4931 5.07715 54.3582 5.13499C54.2234 5.19283 54.1021 5.27968 54.0027 5.3897C53.9033 5.49971 53.828 5.63033 53.7819 5.77275C53.7359 5.91517 53.7201 6.06608 53.7356 6.2153C53.7511 6.36453 53.7976 6.5086 53.872 6.6378L56.9797 14.3669C56.9797 14.3932 57.009 14.4158 57.02 14.4384L55.4222 18.4158C55.319 18.6728 55.3193 18.9613 55.4231 19.2181C55.5268 19.4749 55.7255 19.6789 55.9755 19.7855C56.099 19.8369 56.2308 19.8638 56.364 19.8645C56.5663 19.8648 56.7641 19.8034 56.9324 19.6882C57.1007 19.573 57.2319 19.4091 57.3095 19.2173L62.3669 6.6378C62.4174 6.50938 62.4428 6.37195 62.4414 6.23344C62.44 6.09492 62.4119 5.95806 62.3587 5.83074C62.3056 5.70342 62.2284 5.58815 62.1317 5.49159C62.035 5.39502 61.9206 5.31907 61.7952 5.2681Z" fill="#86BC25"/>
<path d="M105.212 20.7676C105.479 20.7255 105.752 20.7941 105.971 20.9585C106.189 21.1229 106.335 21.3696 106.377 21.6444C106.646 23.4266 106.397 25.2506 105.663 26.8888C104.928 28.527 103.74 29.9068 102.247 30.8561C102.131 30.9302 102.003 30.9802 101.868 31.0033C101.734 31.0264 101.597 31.0221 101.464 30.9907C101.196 30.9272 100.963 30.7569 100.818 30.5174C100.672 30.2779 100.625 29.9887 100.686 29.7135C100.748 29.4383 100.914 29.1996 101.147 29.0499C101.901 28.5696 102.559 27.9464 103.086 27.2135C103.612 26.4794 103.994 25.6475 104.211 24.7639C104.439 23.848 104.482 22.8942 104.339 21.9605C104.32 21.8233 104.327 21.6834 104.36 21.549C104.393 21.4146 104.452 21.2883 104.533 21.1774C104.614 21.0664 104.716 20.9731 104.833 20.9028C104.949 20.8325 105.078 20.7865 105.212 20.7676Z" fill="#FCCC1D"/>
<path d="M1.54285 10.5814C1.27168 10.5814 1.01161 10.4708 0.81986 10.2739C0.62811 10.077 0.520386 9.80994 0.520386 9.5315C0.521731 7.73077 1.03917 5.97026 2.00822 4.46938C2.97726 2.96851 4.35506 1.79366 5.96988 1.09124C6.21036 1.01857 6.46845 1.03913 6.69513 1.14903C6.9218 1.25893 7.10126 1.4505 7.19941 1.68734C7.29755 1.92418 7.30754 2.18979 7.22748 2.4337C7.14742 2.6776 6.98288 2.88281 6.76514 3.01033C5.11269 3.72641 3.79777 5.07656 3.10038 6.77327C2.74211 7.64604 2.56008 8.58439 2.56532 9.5315C2.56532 9.66937 2.53888 9.80589 2.48749 9.93326C2.43611 10.0606 2.36079 10.1764 2.26585 10.2739C2.1709 10.3714 2.05819 10.4487 1.93414 10.5014C1.81008 10.5542 1.67713 10.5814 1.54285 10.5814Z" fill="#FCCC1D"/>
<path d="M22.7875 22.4949C22.7126 22.4454 22.6311 22.4074 22.5456 22.382C22.4434 22.3504 22.3371 22.3352 22.2304 22.3368C22.1488 22.3324 22.0671 22.3463 21.9912 22.3775C21.9153 22.4086 21.8468 22.4564 21.7907 22.5174C21.7357 22.575 21.6925 22.6433 21.6635 22.7182C21.6346 22.7932 21.6205 22.8733 21.6221 22.9539C21.6221 23.1157 21.8017 23.3302 22.1608 23.5635C22.3196 23.6442 22.4549 23.7662 22.5533 23.9174C22.6517 24.0687 22.7097 24.2438 22.7215 24.4252C22.7224 24.6352 22.6805 24.843 22.5985 25.0353C22.5165 25.2276 22.3962 25.4002 22.2454 25.542C22.0946 25.6837 21.9165 25.7915 21.7227 25.8584C21.5289 25.9253 21.3236 25.9498 21.12 25.9304C20.7611 25.957 20.4025 25.8732 20.0902 25.6896L20.4347 25.0461C20.5095 25.0983 20.5926 25.1365 20.6802 25.159C20.7883 25.1928 20.9008 25.2093 21.0137 25.2079C21.1922 25.215 21.3666 25.1517 21.5011 25.0311C21.564 24.9738 21.6137 24.9029 21.6467 24.8235C21.6796 24.7441 21.695 24.6582 21.6917 24.572C21.6917 24.414 21.5268 24.1957 21.1933 23.9699C21.0474 23.8815 20.9254 23.7571 20.8383 23.6079C20.7513 23.4587 20.702 23.2895 20.6949 23.1157C20.6975 22.9184 20.7391 22.7237 20.8171 22.5433C20.8951 22.3629 21.0079 22.2007 21.1487 22.0663C21.2894 21.932 21.4553 21.8283 21.6362 21.7616C21.8171 21.6949 22.0093 21.6666 22.2011 21.6783C22.3778 21.6757 22.554 21.6972 22.7252 21.7423C22.8632 21.779 22.9945 21.8387 23.1136 21.9191L22.7875 22.4949Z" fill="#FCCC1D"/>
<path d="M26.203 25.874H25.2539L25.6204 24.0866H24.5942L24.2277 25.874H23.2749L24.1031 21.7347H25.056L24.7115 23.4394H25.7303L26.0748 21.7347H27.0203L26.203 25.874Z" fill="#FCCC1D"/>
<path d="M28.292 25.874H27.3391L28.171 21.7347H29.1239L28.292 25.874Z" fill="#FCCC1D"/>
<path d="M32.173 22.4008H31.0735L30.861 23.4506H31.8248L31.6929 24.0828H30.729L30.3626 25.8702H29.4097L30.238 21.731H32.2976L32.173 22.4008Z" fill="#FCCC1D"/>
<path d="M35.2696 22.4045H34.5733L33.8844 25.8777H32.9388L33.6278 22.4045H32.9352L33.0671 21.7498H35.3979L35.2696 22.4045Z" fill="#FCCC1D"/>
<path d="M39.9752 22.397H39.2826L38.6046 25.8739H37.6591L38.3334 22.3932H37.6407L37.769 21.7385H40.1035L39.9752 22.397Z" fill="#7A7979"/>
<path d="M42.7934 25.2117C42.6345 25.4418 42.4248 25.6301 42.1814 25.7611C41.9304 25.8952 41.6507 25.9625 41.3678 25.9568C41.1924 25.9691 41.0166 25.9399 40.8539 25.8714C40.6912 25.8029 40.5461 25.6969 40.4296 25.5616C40.2039 25.2595 40.0908 24.8845 40.1108 24.5043C40.1154 24.135 40.1734 23.7685 40.283 23.4168C40.3793 23.0777 40.5318 22.7581 40.7338 22.4723C40.9007 22.2391 41.1144 22.0453 41.3605 21.9041C41.6075 21.7699 41.8837 21.7026 42.1631 21.7084C42.337 21.6934 42.512 21.7195 42.6747 21.7848C42.8373 21.85 42.9832 21.9526 43.1012 22.0847C43.3198 22.3828 43.4288 22.7506 43.4091 23.1233C43.4035 23.4986 43.3455 23.8711 43.2368 24.2296C43.1458 24.5809 42.9957 24.9133 42.7934 25.2117ZM42.0861 22.3519C42.0177 22.3508 41.9498 22.3642 41.8867 22.3914C41.8236 22.4186 41.7667 22.459 41.7196 22.5099C41.5932 22.6389 41.4891 22.7891 41.4118 22.9539C41.298 23.2166 41.2096 23.4901 41.1479 23.7705C41.0785 24.0499 41.0391 24.3364 41.0306 24.6247C41.0212 24.7765 41.0543 24.928 41.1259 25.0612C41.1621 25.1136 41.2107 25.1556 41.2671 25.1833C41.3236 25.211 41.386 25.2233 41.4484 25.2192C41.5172 25.2182 41.5851 25.2031 41.648 25.1747C41.711 25.1462 41.7677 25.1051 41.8149 25.0536C41.9386 24.9156 42.0378 24.7564 42.1081 24.5833C42.2115 24.3184 42.2936 24.0453 42.3536 23.7667C42.4243 23.4914 42.4637 23.2085 42.4709 22.9238C42.479 22.7737 42.4473 22.6242 42.3793 22.4911C42.3478 22.4411 42.3042 22.4002 42.2529 22.3726C42.2015 22.3449 42.1441 22.3313 42.0861 22.333V22.3519Z" fill="#7A7979"/>
<path d="M48.1146 23.763C47.955 23.9542 47.7525 24.1027 47.5246 24.1957C47.2465 24.2999 46.9519 24.3497 46.656 24.3424H46.3445L46.0367 25.8965H45.1058L45.9011 21.9455C46.085 21.8659 46.2767 21.8067 46.4728 21.7686C46.7013 21.7262 46.9332 21.7061 47.1654 21.7084C47.5178 21.6817 47.8683 21.78 48.1586 21.9868C48.2672 22.0772 48.3538 22.1922 48.4117 22.3228C48.4696 22.4534 48.4971 22.596 48.4921 22.7394C48.492 23.1164 48.3577 23.4804 48.1146 23.763ZM47.0775 22.2578C46.9681 22.2555 46.8591 22.2721 46.755 22.3067L46.4618 23.778C46.4983 23.7819 46.5352 23.7819 46.5717 23.778H46.6853C47.0298 23.778 47.2534 23.6915 47.3487 23.5221C47.4309 23.382 47.4949 23.2315 47.5392 23.0743C47.5727 22.9518 47.59 22.8253 47.5905 22.698C47.5953 22.6337 47.587 22.569 47.5662 22.5082C47.5454 22.4473 47.5125 22.3915 47.4696 22.3443C47.3555 22.2622 47.2159 22.2261 47.0775 22.2427V22.2578Z" fill="#7A7979"/>
<path d="M51.6731 23.5673C51.555 23.7037 51.4149 23.8183 51.259 23.9059C51.1104 23.9899 50.9473 24.0436 50.7789 24.064L51.4935 25.8777H50.482L49.8737 24.0339L49.4742 25.8777H48.5434L49.3386 21.9266C49.5232 21.8498 49.7147 21.7918 49.9103 21.7535C50.1325 21.709 50.3584 21.6876 50.5847 21.6896C50.9485 21.6643 51.3106 21.7592 51.6181 21.9605C51.7353 22.0448 51.8301 22.1578 51.8941 22.2892C51.9581 22.4206 51.9892 22.5662 51.9846 22.7131C51.9862 23.0274 51.8753 23.3313 51.6731 23.5673ZM50.515 22.2465C50.4129 22.245 50.3112 22.2615 50.2145 22.2954L49.914 23.8006C49.9836 23.8174 50.0551 23.8249 50.1266 23.8231C50.2402 23.8341 50.3548 23.8188 50.462 23.7785C50.5691 23.7381 50.6661 23.6737 50.7459 23.5898C50.8541 23.4617 50.9374 23.3136 50.9914 23.1533C51.0339 23.0171 51.0549 22.8749 51.0537 22.7319C51.0464 22.4083 50.8632 22.2465 50.504 22.2465H50.515Z" fill="#7A7979"/>
<path d="M55.0703 25.2116C54.909 25.4395 54.6998 25.6273 54.4583 25.761C54.2066 25.8931 53.9274 25.9603 53.6447 25.9567C53.4688 25.9691 53.2924 25.9399 53.1291 25.8714C52.9659 25.8029 52.8201 25.697 52.7029 25.5616C52.4799 25.2582 52.3683 24.8838 52.3877 24.5042C52.3902 24.1348 52.4483 23.7679 52.56 23.4167C52.654 23.0774 52.8053 22.7577 53.0071 22.4722C53.1752 22.2377 53.3901 22.0427 53.6374 21.9003C53.8841 21.7691 54.1586 21.7032 54.4363 21.7084C54.6103 21.6931 54.7854 21.7191 54.9481 21.7843C55.1108 21.8496 55.2567 21.9523 55.3745 22.0846C55.5931 22.3828 55.7021 22.7506 55.6824 23.1232C55.6781 23.4984 55.6213 23.871 55.5138 24.2295C55.4219 24.5806 55.2719 24.9128 55.0703 25.2116ZM54.363 22.3481C54.2943 22.347 54.2261 22.3608 54.1629 22.3887C54.0998 22.4166 54.0431 22.4579 53.9966 22.5099C53.8736 22.6464 53.7733 22.8028 53.6997 22.9727C53.5854 23.2351 53.497 23.5087 53.4359 23.7893C53.3637 24.067 53.3231 24.3524 53.3149 24.6397C53.3073 24.7926 53.3403 24.9447 53.4102 25.0799C53.4471 25.1322 53.4965 25.1739 53.5536 25.2009C53.6107 25.2279 53.6737 25.2394 53.7364 25.2342C53.8053 25.2341 53.8734 25.2194 53.9365 25.1909C53.9996 25.1624 54.0562 25.1208 54.1028 25.0687C54.2283 24.932 54.3277 24.7725 54.396 24.5983C54.5036 24.3346 54.587 24.0613 54.6452 23.7817C54.7143 23.5073 54.7536 23.2259 54.7625 22.9426C54.7697 22.7921 54.7367 22.6425 54.6672 22.5099C54.6386 22.4531 54.5947 22.4059 54.5408 22.3739C54.4869 22.3419 54.4252 22.3264 54.363 22.3292V22.3481Z" fill="#7A7979"/>
<path d="M58.7718 22.4008H57.6723L57.4598 23.4506H58.4273L58.2954 24.0828H57.3279L56.9614 25.8702H56.0085L56.8404 21.731H58.8964L58.7718 22.4008Z" fill="#7A7979"/>
<path d="M59.9371 25.8777H59.0026L59.8345 21.7385H60.7874L59.9371 25.8777Z" fill="#7A7979"/>
<path d="M63.7668 22.4007H63.0705L62.3815 25.8739H61.436L62.125 22.4007H61.4324L61.5606 21.7498H63.8951L63.7668 22.4007Z" fill="#7A7979"/>
<path d="M65.9327 25.8777L65.863 24.9972H64.6573L64.2212 25.8777H63.3307L65.4709 21.7385H66.4018L66.8672 25.8777H65.9327ZM65.7641 23.0894V22.6754C65.7666 22.6466 65.7666 22.6177 65.7641 22.5889L65.7018 22.7695C65.6631 22.8789 65.6178 22.9857 65.5662 23.0894L64.9102 24.4591H65.852L65.7641 23.0894Z" fill="#7A7979"/>
<path d="M69.9969 23.7065C70.1739 23.7629 70.3315 23.8699 70.4513 24.015C70.5756 24.1649 70.6421 24.3563 70.6382 24.5531C70.6375 24.7233 70.6012 24.8914 70.532 25.0461C70.4618 25.2166 70.3597 25.3713 70.2314 25.5014C70.0649 25.6551 69.8652 25.766 69.6488 25.825C69.3644 25.9103 69.0691 25.9509 68.7729 25.9454C68.3421 25.9725 67.9116 25.8898 67.5195 25.7046L68.2781 21.9417C68.6823 21.7666 69.1188 21.6844 69.5571 21.7008C69.9086 21.6781 70.2585 21.7647 70.5613 21.9492C70.6737 22.0158 70.7668 22.1119 70.8312 22.2276C70.8956 22.3433 70.9289 22.4744 70.9278 22.6077C70.9293 22.8669 70.835 23.117 70.6639 23.3076C70.4883 23.5097 70.2547 23.6493 69.9969 23.7065ZM68.9964 23.9774H68.7619L68.498 25.3057C68.5483 25.3231 68.5998 25.3369 68.6519 25.3471C68.7165 25.3534 68.7816 25.3534 68.8462 25.3471C68.9559 25.3627 69.0677 25.3524 69.1731 25.3173C69.2784 25.2821 69.3747 25.2228 69.4545 25.1439C69.5447 25.0317 69.6154 24.9044 69.6634 24.7676C69.6948 24.6614 69.7121 24.5512 69.7147 24.4402C69.7213 24.3674 69.7088 24.2942 69.6785 24.228C69.6482 24.1619 69.6012 24.1052 69.5425 24.0639C69.3705 23.9793 69.1785 23.9466 68.9891 23.9699L68.9964 23.9774ZM69.4765 22.2427C69.4082 22.2376 69.3396 22.2376 69.2713 22.2427C69.2144 22.2547 69.1581 22.2698 69.1027 22.2878L68.8608 23.4995H69.0844C69.3107 23.5273 69.5387 23.4654 69.722 23.3264C69.8209 23.2305 69.8963 23.1118 69.9419 22.9802C69.9797 22.8715 69.9995 22.757 70.0006 22.6416C69.9969 22.3706 69.8173 22.2352 69.4692 22.2352L69.4765 22.2427Z" fill="#7A7979"/>
<path d="M73.1596 25.8777H71.1917L72.0199 21.7385H72.9691L72.2728 25.2117H73.2952L73.1596 25.8777Z" fill="#7A7979"/>
<path d="M76.5935 22.4007H75.494L75.2815 23.4506H76.2527L76.1207 24.0828H75.1496L74.9224 25.2116H76.0218L75.8862 25.8664H73.8303L74.6585 21.7272H76.7181L76.5935 22.4007Z" fill="#7A7979"/>
<path d="M81.3577 22.397H80.2582L80.0493 23.4468H80.9912L80.8629 24.0828H79.8918L79.6609 25.2116H80.7603L80.6284 25.8664H78.5688L79.4007 21.7272H81.4566L81.3577 22.397Z" fill="#7A7979"/>
<path d="M84.5826 25.874H83.89L83.0105 23.556C82.9738 23.4469 82.9445 23.3641 82.9262 23.3001C82.9078 23.2362 82.8932 23.1797 82.8785 23.1233C82.8785 23.1797 82.8529 23.2474 82.8419 23.3265C82.8309 23.4055 82.8162 23.4845 82.7942 23.5748L82.3325 25.874H81.5409L82.3691 21.7347H83.19L84.0036 23.8495C84.0513 23.9737 84.0806 24.064 84.0989 24.1204C84.1172 24.1769 84.1282 24.222 84.1355 24.2521C84.1355 24.1731 84.1575 24.1129 84.1649 24.0678C84.1722 24.0226 84.1905 23.9436 84.2125 23.8382L84.634 21.7347H85.4292L84.5826 25.874Z" fill="#7A7979"/>
<path d="M88.2804 22.397H87.181L86.9721 23.4469H87.9396L87.8003 24.0828H86.8328L86.602 25.2117H87.7014L87.5878 25.874H85.5282L86.3601 21.7347H88.416L88.2804 22.397Z" fill="#7A7979"/>
<path d="M91.652 23.5635C91.5347 23.7008 91.3944 23.8154 91.2379 23.9021C91.0895 23.9866 90.9263 24.0403 90.7578 24.0602L91.4724 25.8739H90.4609L89.8526 24.0301L89.4678 25.8739H88.5369L89.3322 21.9228C89.5167 21.846 89.7082 21.788 89.9039 21.7497C90.1259 21.704 90.3518 21.6813 90.5782 21.682C90.9425 21.6576 91.3047 21.7539 91.6117 21.9567C91.7293 22.0405 91.8245 22.1534 91.8886 22.2849C91.9526 22.4164 91.9834 22.5624 91.9781 22.7093C91.9757 23.0256 91.8595 23.3298 91.652 23.5635ZM90.4976 22.2427C90.3942 22.2409 90.2913 22.2574 90.1934 22.2916L89.8929 23.7968C89.9625 23.8136 90.0339 23.8212 90.1054 23.8194C90.2191 23.8303 90.3337 23.815 90.4408 23.7747C90.548 23.7343 90.645 23.6699 90.7248 23.5861C90.8335 23.4563 90.918 23.307 90.974 23.1458C91.0137 23.0103 91.0335 22.8696 91.0326 22.7281C91.0326 22.4007 90.8531 22.2427 90.4976 22.2427Z" fill="#7A7979"/>
<path d="M95.3277 22.4873C95.251 22.4463 95.1698 22.4147 95.0858 22.3932C94.9711 22.3714 94.8544 22.3613 94.7377 22.3631C94.5234 22.3594 94.3117 22.4112 94.122 22.5136C93.9337 22.6157 93.7755 22.7678 93.6639 22.9539C93.5317 23.1676 93.4328 23.4012 93.3707 23.6463C93.3019 23.891 93.2662 24.1442 93.2645 24.3989C93.2511 24.6248 93.3089 24.8491 93.4294 25.0386C93.4791 25.1103 93.5452 25.1683 93.6219 25.2077C93.6985 25.2471 93.7835 25.2665 93.8691 25.2644C93.9331 25.2646 93.997 25.2583 94.0597 25.2455C94.1021 25.238 94.1438 25.2267 94.1843 25.2117L94.4189 24.0339H93.9314L94.0487 23.4506H95.412L94.9612 25.7084C94.7998 25.795 94.627 25.8571 94.4482 25.8928C94.2334 25.9365 94.0148 25.958 93.7958 25.9567C93.595 25.9695 93.3937 25.9397 93.2046 25.8691C93.0154 25.7986 92.8424 25.6888 92.6964 25.5466C92.5627 25.3939 92.4598 25.2156 92.3937 25.0218C92.3277 24.828 92.2998 24.6226 92.3116 24.4177C92.313 24.0586 92.3737 23.7023 92.4912 23.3641C92.5992 23.0349 92.7671 22.7297 92.9859 22.4647C93.1881 22.2249 93.438 22.0324 93.7189 21.9003C94.0088 21.7696 94.3222 21.7029 94.6387 21.7046C94.8383 21.703 95.0375 21.7245 95.2324 21.7686C95.3896 21.8028 95.5406 21.8625 95.6795 21.9454L95.3277 22.4873Z" fill="#7A7979"/>
<path d="M97.8271 24.1392L97.4606 25.874H96.5078L96.8743 24.1392L96.2952 21.7422H97.2554L97.5119 23.3039L98.4464 21.7422H99.3809L97.8271 24.1392Z" fill="#7A7979"/>
<path d="M100.414 25.9341C100.357 25.9362 100.3 25.9266 100.247 25.9059C100.193 25.8853 100.145 25.8539 100.103 25.8137C100.061 25.7748 100.029 25.7269 100.007 25.6736C99.9858 25.6203 99.9759 25.5628 99.9783 25.5052C99.9799 25.4224 99.9976 25.3409 100.03 25.2653C100.063 25.1897 100.11 25.1215 100.169 25.0649C100.227 25.0032 100.296 24.9541 100.373 24.9204C100.45 24.8868 100.533 24.8694 100.616 24.8692C100.673 24.8672 100.73 24.8768 100.783 24.8974C100.837 24.9181 100.886 24.9494 100.928 24.9896C100.968 25.0294 100.999 25.0775 101.02 25.1306C101.041 25.1838 101.051 25.2409 101.048 25.2982C101.048 25.3811 101.03 25.4629 100.998 25.5386C100.965 25.6143 100.917 25.6824 100.858 25.7385C100.801 25.8002 100.732 25.8494 100.656 25.8831C100.58 25.9167 100.497 25.9341 100.414 25.9341ZM101.074 24.429H100.367L100.711 21.7385H101.811L101.074 24.429Z" fill="#7A7979"/>
</svg>
